<?xml version="1.0" encoding="UTF-8"?>
<svg id="Layer_1" data-name="Layer 1" xmlns="http://www.w3.org/2000/svg">
  <defs>
    <symbol id="full" viewBox="0 0 473.44 248.97">
      <path d="M43.84,248.95c-1.71-.01-3.41,0-5.11.01-12.54.09-22.38-1.23-31.51-10.57-4.61-7.08-6.82-12.83-6.82-21.31q-.01-1.22-.01-2.48L0,40.61C-.08,27.49.66,16.91,10.55,7.23,17.32,2.84,22.79.43,30.92.42q1.08,0,2.18-.01L429.61.02c1.7.01,3.41,0,5.11-.01,12.54-.09,22.38,1.23,31.5,10.56,4.61,7.09,6.83,12.84,6.83,21.32.01.81.01,1.63.01,2.47l.36,168.24c-.01,1.92,0,3.85.01,5.77.1,13.13-.64,23.69-10.55,33.37-6.76,4.4-12.23,6.81-20.36,6.82q-1.08,0-2.18.01h-7.29c-1.74,0-3.5.01-5.25.01l-383.97.38ZM422.57,243.13c1.63,0,3.27,0,4.9.01,14.65.04,25.92-.58,35.83-12.31,5.05-9.9,4.35-20.73,4.31-31.55.01-1.82.01-3.63.01-5.45V52.38c-.01-1.77,0-3.52,0-5.28.03-14.94-.27-26.77-12.31-36.95-9.56-4.87-19.78-4.35-30.25-4.31-1.69,0-3.38-.01-5.08-.01H50.87c-1.63.01-3.27.01-4.9,0-14.66-.04-25.93.58-35.83,12.31-5.06,9.9-4.35,20.73-4.31,31.55v152.17c-.04,14.94.24,26.77,12.3,36.95,9.56,4.87,19.78,4.35,30.24,4.31,1.7,0,3.39,0,5.09.01h369.11Z" style="fill: #4bc9f5;"/>
      <path d="M237.37,83.64c4.46,2.88,7.15,6.42,8.79,11.39.11,1.68.16,3.38.17,5.07.01,1.02.01,2.04.02,3.1v3.35q.01,1.71.01,3.45c.01,2.41.01,4.82.01,7.24,0,3.69.02,7.37.04,11.05v7.02c.01,1.1.02,2.2.03,3.33-.02,5.55-.3,10.1-2.51,15.3.92-.06,1.83-.1,2.78-.14q1.38.62,2.78,1.26c.54,3.72.31,7.36,0,11.11q-8.15.4-11.67-1.53-1.67-1.8-1.67-4.02c-1.04.04-2.09.1-3.17.16q-13.91.4-19.06-4.6c-3.6-4.1-4.58-7.56-4.62-12.96-.01-1.04-.02-2.09-.03-3.17,0-1.12,0-2.26-.01-3.42,0-1.16-.01-2.32-.02-3.52-.01-2.47-.01-4.92-.02-7.39-.01-3.76-.04-7.52-.08-11.28,0-2.39-.01-4.79-.01-7.18-.02-1.12-.03-2.24-.04-3.4.02-7.54.73-12.76,6.59-18.05,6.07-4.2,14.7-4.68,21.69-2.14ZM222.83,96.15c-1.46,4.39-1.31,8.6-1.33,13.18,0,.98-.01,1.94-.02,2.93-.01,2.06-.01,4.1-.02,6.16-.01,3.12-.04,6.26-.08,9.38,0,2-.01,3.99-.01,5.98-.02.93-.03,1.87-.04,2.83.02,5.17.29,8.72,3.73,12.88q2.78.92,5.56,0c4.07-4.9,3.81-9.62,3.75-15.67v-2.93c0-2.04-.01-4.08-.03-6.12-.02-3.12-.02-6.25-.01-9.37-.01-1.98-.02-3.97-.03-5.96.01-.93.01-1.87.01-2.82-.01-.87-.02-1.74-.03-2.65-.01-.76-.01-1.52-.02-2.31-.34-2.62-1.1-4.39-2.51-6.62-4.22-1.52-5.03-1.46-8.89,1.11Z" style="fill: #4bc9f5;"/>
      <path d="M258.39,83.92h33.34v11.11h-21.12v20h16.67v11.11h-16.67v22.23h21.12v11.11h-33.34v-75.57Z" style="fill: #57bfed;"/>
      <path d="M300.63,83.92h37.79v11.11h-13.34v64.46h-12.23v-64.46h-12.23v-11.11Z" style="fill: #5fb6e6;"/>
      <path d="M136.14,83.92h37.79v11.11h-13.34v64.46h-12.23v-64.46h-12.23v-11.11Z" style="fill: #5ecae8;"/>
      <path d="M441.58,194.65c11.5,3.76,16.51,18.37,9.78,28.42-7.59,12.23-26.32,11.8-33.18-.91-8.45-15.18,6.74-33.17,23.19-27.58l.21.07Z" style="fill: #4bc9f5;"/>
      <path d="M183.93,83.92h12.23v75.57h-12.23v-75.57Z" style="fill: #55c9ef;"/>
    </symbol>
    <symbol id="icon" viewBox="120 0 248.97 248.97">
      <path d="M237.37,83.64c4.46,2.88,7.15,6.42,8.79,11.39.11,1.68.16,3.38.17,5.07.01,1.02.01,2.04.02,3.1v3.35q.01,1.71.01,3.45c.01,2.41.01,4.82.01,7.24,0,3.69.02,7.37.04,11.05v7.02c.01,1.1.02,2.2.03,3.33-.02,5.55-.3,10.1-2.51,15.3.92-.06,1.83-.1,2.78-.14q1.38.62,2.78,1.26c.54,3.72.31,7.36,0,11.11q-8.15.4-11.67-1.53-1.67-1.8-1.67-4.02c-1.04.04-2.09.1-3.17.16q-13.91.4-19.06-4.6c-3.6-4.1-4.58-7.56-4.62-12.96-.01-1.04-.02-2.09-.03-3.17,0-1.12,0-2.26-.01-3.42,0-1.16-.01-2.32-.02-3.52-.01-2.47-.01-4.92-.02-7.39-.01-3.76-.04-7.52-.08-11.28,0-2.39-.01-4.79-.01-7.18-.02-1.12-.03-2.24-.04-3.4.02-7.54.73-12.76,6.59-18.05,6.07-4.2,14.7-4.68,21.69-2.14ZM222.83,96.15c-1.46,4.39-1.31,8.6-1.33,13.18,0,.98-.01,1.94-.02,2.93-.01,2.06-.01,4.1-.02,6.16-.01,3.12-.04,6.26-.08,9.38,0,2-.01,3.99-.01,5.98-.02.93-.03,1.87-.04,2.83.02,5.17.29,8.72,3.73,12.88q2.78.92,5.56,0c4.07-4.9,3.81-9.62,3.75-15.67v-2.93c0-2.04-.01-4.08-.03-6.12-.02-3.12-.02-6.25-.01-9.37-.01-1.98-.02-3.97-.03-5.96.01-.93.01-1.87.01-2.82-.01-.87-.02-1.74-.03-2.65-.01-.76-.01-1.52-.02-2.31-.34-2.62-1.1-4.39-2.51-6.62-4.22-1.52-5.03-1.46-8.89,1.11Z" style="fill: #4bc9f5;"/>
      <path d="M258.39,83.92h33.34v11.11h-21.12v20h16.67v11.11h-16.67v22.23h21.12v11.11h-33.34v-75.57Z" style="fill: #57bfed;"/>
      <path d="M300.63,83.92h37.79v11.11h-13.34v64.46h-12.23v-64.46h-12.23v-11.11Z" style="fill: #5fb6e6;"/>
      <path d="M136.14,83.92h37.79v11.11h-13.34v64.46h-12.23v-64.46h-12.23v-11.11Z" style="fill: #5ecae8;"/>
      <path d="M183.93,83.92h12.23v75.57h-12.23v-75.57Z" style="fill: #55c9ef;"/>
    </symbol>
  </defs>
  
</svg>